<svg version="1.1" xmlns="http://www.w3.org/2000/svg" xmlns:xlink="http://www.w3.org/1999/xlink" width="481.75" height="358.931" viewBox="0,0,481.75,358.931"><g transform="translate(0.875,-0.5345)"><g data-paper-data="{&quot;isPaintingLayer&quot;:true}" fill-rule="nonzero" stroke-linejoin="miter" stroke-miterlimit="10" stroke-dasharray="" stroke-dashoffset="0" style="mix-blend-mode: normal"><path d="M-0.5,359.0905v-358.181h481v358.181z" fill="#000000" stroke="#000000" stroke-width="0.75" stroke-linecap="butt"/><g stroke-linecap="butt" font-family="Sans Serif" font-weight="normal" font-size="40" text-anchor="start"><text transform="translate(15.62083,119.83665) scale(1.36313,1.36313)" font-size="40" xml:space="preserve" fill="#ffffff" fill-rule="nonzero" stroke="#ffffff" stroke-width="10" stroke-linecap="butt" stroke-linejoin="miter" stroke-miterlimit="10" stroke-dasharray="" stroke-dashoffset="0" font-family="Sans Serif" font-weight="normal" text-anchor="start" style="mix-blend-mode: normal"><tspan x="0" dy="0">score</tspan></text><text transform="translate(15.62083,119.83665) scale(1.36313,1.36313)" font-size="40" xml:space="preserve" fill="#ff6666" fill-rule="nonzero" stroke="#ff6767" stroke-width="2" stroke-linecap="butt" stroke-linejoin="miter" stroke-miterlimit="10" stroke-dasharray="" stroke-dashoffset="0" font-family="Sans Serif" font-weight="normal" text-anchor="start" style="mix-blend-mode: normal"><tspan x="0" dy="0">score</tspan></text></g><g stroke-linecap="butt" font-family="Sans Serif" font-weight="normal" font-size="40" text-anchor="start"><text transform="translate(8.34208,313.82444) scale(0.74506,0.74506)" font-size="40" xml:space="preserve" fill="#ff0000" fill-rule="nonzero" stroke="#ff0000" stroke-width="1" stroke-linecap="butt" stroke-linejoin="miter" stroke-miterlimit="10" stroke-dasharray="" stroke-dashoffset="0" font-family="Sans Serif" font-weight="normal" text-anchor="start" style="mix-blend-mode: normal"><tspan x="0" dy="0">Please click the</tspan></text><text transform="translate(232.74432,314.44433) scale(0.79879,0.79879)" font-size="40" xml:space="preserve" fill="#42e518" fill-rule="nonzero" stroke="#42e518" stroke-width="2" stroke-linecap="butt" stroke-linejoin="miter" stroke-miterlimit="10" stroke-dasharray="" stroke-dashoffset="0" font-family="Sans Serif" font-weight="normal" text-anchor="start" style="mix-blend-mode: normal"><tspan x="0" dy="0">green flag</tspan></text></g><path d="M404.14802,314.54797l0.0164,-0.00164c-0.00761,-0.02256 -0.01511,-0.04516 -0.02251,-0.06781c-0.58042,-1.77597 -0.13195,-3.73613 -0.29377,-5.59752c-0.39632,-4.55877 -1.34643,-8.87986 -1.16712,-13.49042c0.05752,-1.4789 -0.26721,-3.25367 0.68473,-4.38692c0.92595,-1.10231 2.70812,-1.00095 4.11134,-1.32262c0.04009,-0.00919 2.5602,-0.00745 2.8752,-0.00745c1.05025,0 2.10049,0 3.15074,0l1.15156,-0.57578l0.097,0.194c0.17507,-0.15062 0.35692,-0.29364 0.54699,-0.42743c0.67014,-0.47171 1.63786,-0.06504 2.45724,-0.07922c1.45231,-0.02513 3.04743,-0.01818 4.43669,0.43084c0.93102,0.30091 1.78632,0.80948 2.62542,1.31271c0.38807,0.23273 0.58056,0.76406 1.00979,0.9073c0.94004,0.31372 1.9387,0.45497 2.85201,0.83963c0.89423,0.37664 1.64568,1.04315 2.53572,1.4296c0.4049,0.1758 0.88004,0.11027 1.30284,0.23708c0.68811,0.20639 1.28283,0.7563 1.99965,0.80389c0.51454,0.03416 1.03292,-0.07172 1.54674,-0.02814c1.1155,0.0946 2.18907,0.50849 3.3051,0.5966c0.67305,0.05314 1.35248,-0.05863 2.02544,-0.00432c1.11588,0.09006 2.18934,0.50512 3.3051,0.59661c0.98528,0.08079 1.97715,-0.01442 2.96574,-0.01442c1.39288,0 4.15298,-0.24336 5.05545,0.86737c0.91739,1.1291 0.54656,2.85784 0.82914,4.28494c0.06063,0.30622 0.25551,0.57892 0.29614,0.88842c0.07199,0.54842 0.0308,1.10585 0.03824,1.65893c0.00531,0.39482 0,0.78971 0,1.18456c0,4.63954 0,9.27909 0,13.91863c0,2.65805 0.3259,5.49349 -0.44811,8.04386c-0.55858,1.53573 -0.86649,2.8904 -2.66962,3.78527c-1.01869,0.50557 -2.26153,0.25618 -3.39737,0.31265c-0.94808,0.04713 -1.89939,-0.04305 -2.84776,-0.00218c-2.4312,0.10478 -5.30973,0.74379 -7.71916,-0.20587c-1.16062,-0.45745 -2.04838,-1.42494 -3.05557,-2.16107c-0.88394,-0.64605 -1.81318,-1.24154 -2.61703,-1.98488c-0.1433,-0.13251 -0.27819,-0.27305 -0.40786,-0.41861c-1.42447,-0.10697 -2.65794,-0.33935 -4.18224,-1.07925c-1.41138,-0.06268 -2.81309,-0.16584 -4.0408,-0.79794c-0.14294,-0.07359 -0.2779,-0.15694 -0.40602,-0.24866l-0.03537,0.07072l-1.12718,-0.56359c-0.65473,-0.31037 -1.17746,-0.85383 -1.46103,-1.52319c-0.64771,0.20797 -1.30302,0.39061 -1.95991,0.55202c-1.65022,0.4055 -3.3898,0.24447 -5.08471,0.3667l-0.19212,-0.07958l-0.00486,0.07302l-4.41919,-0.29461c-0.35755,-0.02073 -0.69808,-0.10488 -1.01051,-0.24139c-0.36275,0.15849 -0.76339,0.24642 -1.18456,0.24642c-1.63554,0 -2.96141,-1.32587 -2.96141,-2.96141c0,-1.04423 0.54046,-1.96223 1.35693,-2.48952l0.36854,-0.24569z" fill="#4bbf57" stroke="none" stroke-width="0.5" stroke-linecap="butt"/><path d="M402.38908,328.89457l0.20397,-40.99782" fill="#43993d" stroke="#43993d" stroke-width="5" stroke-linecap="round"/><path d="M402.37885,330.95075l-0.05984,12.02822" fill="#43993d" stroke="#43993d" stroke-width="5" stroke-linecap="round"/><path d="M440.68145,298.68244c-0.03591,-0.0186 -0.07233,-0.03571 -0.10922,-0.05142c-0.80166,0.07511 -1.61298,0.10633 -2.30041,-0.13788c-0.04348,-0.00221 -0.08661,-0.00518 -0.12937,-0.00905c-1.29314,-0.11735 -2.69072,-0.38822 -3.89728,-0.85228l-0.13326,-0.05126c0,0 -0.15296,-0.05883 -0.14556,-0.20681c-0.0236,-0.00033 -0.04722,-0.00049 -0.07085,-0.00049c0,0 -0.15916,0 -0.20801,-0.13474c-0.23099,-0.09211 -0.45177,-0.19934 -0.65915,-0.32416c-0.91627,-0.40052 -1.80052,-0.84982 -2.70705,-1.42671c0,0 -0.04072,-0.02591 -0.07212,-0.07256c-0.31208,-0.22133 -0.60586,-0.46569 -0.87646,-0.73543c-0.12342,-0.09573 -0.24144,-0.19772 -0.35325,-0.30672c-0.00644,0.00882 -0.01288,0.01764 -0.01932,0.02647c-0.49913,-0.54453 -1.23091,-0.93659 -1.84955,-1.32101c-2.94146,-1.82785 -6.06733,-3.07638 -9.47681,-3.78882c-3.734,-0.78025 -6.1973,2.14292 -9.72201,2.48405c-0.66228,0.06409 -3.27359,0.04297 -3.46966,-0.93736c-0.34019,-0.39023 -0.54621,-0.90046 -0.54621,-1.45881c0,-0.9802 0.63496,-1.8121 1.516,-2.10682c0.08239,-0.03991 0.17072,-0.06987 0.26608,-0.08806c1.24918,-0.23832 2.02742,0.31189 3.33799,-0.25714c1.72522,-0.74906 3.35705,-1.79237 5.2491,-2.07186c4.03026,-0.59533 8.95816,0.81734 12.34024,2.99777c0.96841,0.62433 2.14029,1.10829 3.22751,1.68968c0.00124,0.00185 0.00248,0.00369 0.00372,0.00554c0.43946,0.65325 1.46797,0.84965 2.10381,1.33632c1.28568,0.98407 2.33023,2.04389 3.8679,2.32425c0.40022,0.19195 0.88395,0.32711 1.45286,0.39033c0.02279,0.00253 0.24817,0.01569 0.57286,0.02274c0.35874,0.13899 0.77058,0.16935 1.15463,0.19936c0.65425,0.05112 2.43575,0.12939 3.89362,-0.06635c0.02285,0.00726 0.04575,0.01427 0.06871,0.02099c0.3025,-0.05289 0.61337,-0.08769 0.926,-0.10109c0.66107,-0.17904 1.44531,-0.27064 1.92291,-0.27307h0.29614c0,0 0.00479,0 0.01296,0.0007c0.14465,-0.02229 0.29007,-0.04255 0.436,-0.06325c0.03687,-0.01318 0.06505,-0.02267 0.08122,-0.02731c0.25675,-0.07362 0.51639,-0.09502 0.77649,-0.1177c0.02344,-0.00528 0.04688,-0.01077 0.07031,-0.01649c0.19853,-0.05824 0.39775,-0.12013 0.59913,-0.18538c0.47742,-0.17371 0.94996,-0.39502 1.40442,-0.5652c0.255,-0.09549 0.51893,-0.16891 0.78578,-0.23508c0.39531,-0.29086 0.82381,-0.5379 1.24554,-0.79519c0.10683,-0.06828 0.21447,-0.13553 0.32319,-0.20135c0.27479,-0.17597 0.54213,-0.36251 0.79044,-0.57523l0.09349,-0.16774c0,0 0.1112,-0.19227 0.30346,-0.08106c0.01126,0.00651 0.02148,0.0133 0.03074,0.02031c0.35017,-0.2146 0.68146,-0.37411 0.94724,-0.4081c0.22296,-0.02852 0.70307,0.18053 0.93415,0.25477c0.40307,0.12948 0.90982,0.05188 1.22532,0.33417c0.04266,0.03816 0.59894,2.09753 0.58894,2.15947c-0.06902,0.42737 -0.38268,0.79489 -0.68879,1.101c-0.56768,0.56768 -1.37265,0.89866 -2.04896,1.29115c-1.41726,0.82246 -2.72556,1.40987 -4.01235,1.82975c-0.06453,0.05082 -0.14762,0.05081 -0.14762,0.05081h-0.01059c-0.35697,0.11284 -0.71256,0.21296 -1.06863,0.30183c-0.00886,0.00292 -0.01772,0.00583 -0.02658,0.00874c-0.0455,0.0523 -0.10724,0.07289 -0.10724,0.07289l-0.20024,0.06001c-0.05146,0.00413 -0.10287,0.00891 -0.15424,0.01426c-1.8564,0.57336 -3.74523,0.9343 -5.68367,1.00866c-0.04199,0.01407 -0.07682,0.0143 -0.07682,0.0143l-0.22438,0.00149c-0.06447,0.00062 -0.12987,0.00234 -0.19609,0.00499c-0.1105,0.00988 -0.22094,0.01782 -0.3312,0.0237c-0.06291,0.04386 -0.13823,0.04386 -0.13823,0.04386h-0.2221c-0.05044,0 -0.10076,-0.00029 -0.15099,-0.00087c-0.10602,0.01088 -0.21295,0.02224 -0.32046,0.03352c-0.1005,0.18882 -0.2942,0.09197 -0.2942,0.09197z" fill="#43993d" stroke="#43993d" stroke-width="0.5" stroke-linecap="butt"/><path d="M411.1818,297.51283c-0.00786,-0.02071 -0.01308,-0.04466 -0.01464,-0.07237c0.00493,0.02419 0.00981,0.04831 0.01464,0.07237z" fill="#43993d" stroke="#43993d" stroke-width="0.5" stroke-linecap="butt"/><path d="M403.01512,327.26755c-0.22096,-0.02249 -0.19848,-0.24345 -0.19848,-0.24345l0.13977,-0.24358c0.25457,-0.1082 0.51957,-0.19992 0.79222,-0.27897c-0.25566,-0.18977 -0.46913,-0.43316 -0.62376,-0.71356c-0.61027,0 -1.22054,0 -1.83081,0c0.03413,-0.15996 0.0322,-0.30628 -0.03159,-0.4179c-0.00493,-0.00862 -0.00995,-0.01739 -0.01507,-0.02631c0.56411,0 1.12822,0 1.69233,0c-0.05837,-0.19879 -0.08968,-0.40916 -0.08968,-0.62683c0,-0.57677 0.21985,-1.1022 0.58032,-1.49704c0.05721,-0.07948 0.12311,-0.15232 0.20047,-0.21638c0.168,-0.13914 0.36054,-0.24605 0.56686,-0.32932c0.10447,-0.04473 0.21307,-0.08168 0.32506,-0.11012c0.47728,-0.13465 0.99452,-0.17665 1.43833,-0.21666c0.77587,-0.06996 1.53465,-0.50034 2.32682,-0.59811c1.0299,-0.12712 2.09469,-0.09736 3.12358,-0.24056c0.388,-0.054 0.79029,-0.12096 1.20222,-0.1931c0.04552,0.02854 0.09936,0.04503 0.15706,0.04503h0.29614c0.72217,0 1.43937,0.00935 2.15509,0.03288l0.27643,0.03071l0.00232,-0.02082c0.11698,0.00446 0.23393,0.00932 0.35087,0.0146c0.70753,0.1324 1.44974,0.1601 2.2022,0.15369c0.10848,0.01048 0.21702,0.02143 0.32565,0.03287c0.83699,0.08811 1.66421,0.20624 2.48674,0.23569l0.36023,0.18011l0.00189,-0.00379l0.00923,0.00907c0.77628,0.31099 1.63821,0.5211 2.49763,0.55383c0.37112,0.15143 0.70908,0.27861 0.93085,0.37661c1.17501,0.51918 2.30486,1.11203 3.4524,1.66806c0.77762,0.47002 1.60299,0.88825 2.37303,1.27357c0.34288,0.29104 0.83886,0.52387 1.33854,0.69961c0.25626,0.18511 0.53208,0.34661 0.82258,0.47874c0.13975,0.09748 0.25903,0.17931 0.34059,0.22829c0.81194,0.48764 3.35224,1.69355 4.26306,1.89596c0.06261,0.01391 0.14794,0.0152 0.25007,0.00645c0.02835,0.04251 0.05546,0.08454 0.08133,0.12613c0.44007,0.12775 0.92372,0.22588 1.28039,0.27035c0.57743,0.07199 1.12656,0.1099 1.65612,0.12161c0.03249,0.01696 0.06696,0.03319 0.10314,0.04872c1.34683,-0.02113 2.69777,-0.03811 4.03771,0.02043c0.32306,-0.02433 0.64507,-0.04989 0.96554,-0.07531c1.0974,-0.20092 2.12853,-0.50449 3.13781,-0.86424c0.22044,-0.08751 0.43998,-0.17766 0.65867,-0.26928c0.43789,-0.2521 0.85797,-0.53319 1.25239,-0.85116c0.60361,-0.4866 1.05356,-1.03142 1.64889,-1.4731l-0.03561,-0.04155l0.33633,-0.28828c0.03897,-0.03381 0.08983,-0.05428 0.14549,-0.05428c0.09058,0 0.16849,0.05423 0.20306,0.13198c0.2643,-0.10685 0.55406,-0.1705 0.88356,-0.1705c0.40639,0 0.84914,0.06092 1.18379,0.29147c0.14466,0.09967 1.12168,1.74284 1.11053,1.94343c-0.02515,0.45278 -0.33108,0.84788 -0.55608,1.24161c-0.156,0.27301 -0.37091,0.52649 -0.62336,0.7633c0.01955,0.0488 0.01955,0.09276 0.01955,0.09276l-0.06505,0.23109c-0.13747,0.13746 -0.2793,0.26647 -0.42504,0.388c0.00337,-0.00015 0.00676,-0.00023 0.01017,-0.00023c0.12267,0 0.2221,0.09944 0.2221,0.2221c0,0.06006 -0.02384,0.11455 -0.06257,0.15453l-0.26024,0.26935l-0.0421,-0.04068l-0.08089,0.06022l-0.00068,-0.00091l-0.00032,0.00164c-0.03563,0.02591 -0.07132,0.05173 -0.10705,0.07745c-0.14706,0.1325 -0.30915,0.24268 -0.48301,0.34024c-0.6219,0.42935 -1.25689,0.837 -1.89453,1.24567c-0.70709,0.22283 -1.4528,0.54536 -2.18209,0.67674c-0.48395,0.08719 -1.01113,0.10125 -1.54602,0.08319c-0.11735,0.04481 -0.23436,0.08906 -0.35091,0.1328c-0.40461,0.08161 -0.80136,0.15883 -1.20997,0.21729l-0.0785,0.01121c0,0 -0.17881,0.02554 -0.23696,-0.1307c-0.33817,0.05921 -0.67636,0.1184 -1.01457,0.17743l-0.34517,0.09436c-0.02011,0.00599 -0.04142,0.00921 -0.06348,0.00921c-0.12267,0 -0.2221,-0.09944 -0.2221,-0.22211c0,-0.02588 0.00442,-0.0507 0.01255,-0.0738c-0.48987,0.04949 -0.97806,0.08519 -1.46007,0.10751c-0.17631,-0.04107 -0.35343,-0.07759 -0.53121,-0.11054c-0.10522,0.00185 -0.21067,0.0028 -0.31637,0.0028c0,0 -0.11836,0 -0.18228,-0.08641c-1.10114,-0.16709 -2.2209,-0.23329 -3.31931,-0.42687c-0.584,-0.19968 -1.20146,-0.34003 -1.8102,-0.48205c-0.02042,-0.00781 -0.04082,-0.01573 -0.0612,-0.02373c-2.10586,-0.82685 -4.18103,-1.75453 -6.26359,-2.67289c-0.079,-0.00509 -0.15871,-0.01113 -0.2376,-0.01791c-0.09445,-0.05016 -0.18162,-0.10179 -0.25722,-0.15686c-0.59911,-0.4364 -1.33522,-0.85334 -2.11283,-1.10514c-0.24581,-0.20624 -0.50597,-0.38674 -0.79908,-0.49075c-0.08714,-0.03092 -0.17414,-0.06218 -0.26098,-0.09376c-0.32422,-0.16598 -0.67449,-0.37296 -1.04254,-0.59296c-0.52695,-0.11811 -1.05196,-0.30443 -1.56894,-0.45053c-0.24016,-0.06786 -0.48068,-0.13518 -0.72139,-0.20238c-0.11192,0.05522 -0.22464,-0.02699 -0.22464,-0.02699l-0.07693,-0.05716c-0.55502,-0.15484 -1.11058,-0.31008 -1.6643,-0.47114c-0.53816,-0.12775 -1.07782,-0.2507 -1.61956,-0.37102c-1.22222,-0.17116 -2.42388,-0.27766 -3.6402,-0.33741c-0.09238,0.09169 -0.2291,0.04197 -0.2291,0.04197c-0.05944,-0.02161 -0.11952,-0.0417 -0.18016,-0.06032c-0.60949,-0.02474 -1.22361,-0.0383 -1.84676,-0.04293c-2.21513,0.16858 -4.46063,0.4944 -6.63368,0.87788c-1.06273,0.18754 -2.44833,0.24685 -3.43804,0.70448c-0.02357,0.06187 -0.07809,0.13342 -0.20415,0.13342c-0.2221,0 -0.2221,-0.2221 -0.2221,-0.2221l0.12278,-0.25789c0.22858,-0.11299 0.47649,-0.20481 0.73638,-0.28142c-0.00858,-0.01371 -0.01537,-0.02711 -0.02059,-0.04017c-0.24081,0.06592 -0.47637,0.14574 -0.70195,0.27486c-0.01761,0.01638 -0.03963,0.0304 -0.06712,0.03989l-0.26653,0.15925c0,0 -0.19067,0.11392 -0.30459,-0.07675c-0.00509,-0.00852 -0.00957,-0.0169 -0.01349,-0.02511c-0.03051,0.01242 -0.06812,0.01842 -0.11446,0.0137zM407.43178,326.40795c0.23224,-0.04099 0.4653,-0.08131 0.69906,-0.12086c-0.66137,0.0712 -1.31969,0.18 -1.97027,0.3062c-0.00527,0.00139 -0.01056,0.00278 -0.01584,0.00416c0.44581,-0.0635 0.88485,-0.11852 1.28706,-0.1895zM449.58221,329.02579c-0.03089,0.01772 -0.0619,0.03529 -0.09301,0.05273c0.10778,-0.03539 0.21517,-0.07136 0.32214,-0.10793c-0.04813,0.00568 -0.09632,0.013 -0.14448,0.02283c-0.02821,0.01082 -0.05642,0.02161 -0.08464,0.03237zM417.89574,325.46335c0.04757,0.00272 0.09513,0.00543 0.14269,0.00814c-0.00029,-0.00272 -0.00054,-0.00545 -0.00073,-0.0082c-0.04733,-0.00011 -0.09464,-0.00009 -0.14196,0.00006z" fill="#43993d" stroke="#43993d" stroke-width="0.5" stroke-linecap="butt"/><path d="M453.89322,329.35649l0.1827,-36.72149" fill="#43993d" stroke="#43993d" stroke-width="5" stroke-linecap="round"/><g fill="#ff6666" stroke-linecap="butt" font-family="Sans Serif" font-weight="normal" font-size="40" text-anchor="start"><text transform="translate(18.39699,204.14486) scale(1.21901,1.1142)" font-size="40" xml:space="preserve" fill="#ff6666" fill-rule="nonzero" stroke="#ffffff" stroke-width="10" stroke-linecap="butt" stroke-linejoin="miter" stroke-miterlimit="10" stroke-dasharray="" stroke-dashoffset="0" font-family="Sans Serif" font-weight="normal" text-anchor="start" style="mix-blend-mode: normal"><tspan x="0" dy="0">world</tspan><tspan x="0" dy="46.15px">record</tspan></text><text transform="translate(18.39715,204.14489) scale(1.21901,1.1142)" font-size="40" xml:space="preserve" fill="#ff6666" fill-rule="nonzero" stroke="#ff6565" stroke-width="1.5" stroke-linecap="butt" stroke-linejoin="miter" stroke-miterlimit="10" stroke-dasharray="" stroke-dashoffset="0" font-family="Sans Serif" font-weight="normal" text-anchor="start" style="mix-blend-mode: normal"><tspan x="0" dy="0">world</tspan><tspan x="0" dy="46.15px">record</tspan></text></g></g></g></svg>