<svg version="1.1" xmlns="http://www.w3.org/2000/svg" xmlns:xlink="http://www.w3.org/1999/xlink" width="589.08859" height="222.55398" viewBox="0,0,589.08859,222.55398"><g transform="translate(53.79355,-169.12621)"><g data-paper-data="{&quot;isPaintingLayer&quot;:true}" stroke="none" stroke-linejoin="miter" stroke-miterlimit="10" stroke-dasharray="" stroke-dashoffset="0" style="mix-blend-mode: normal"><path d="M-53.79354,383.92269c0,-0.13807 0.11193,-0.25 0.25,-0.25c0.13807,0 0.25,0.11193 0.25,0.25c0,0.13807 -0.11193,0.25 -0.25,0.25c-0.13807,0 -0.25,-0.11193 -0.25,-0.25z" fill="#ffffff" fill-rule="nonzero" stroke-width="0.5" stroke-linecap="butt"/><path d="M534.79504,391.4302c0,-0.13807 0.11193,-0.25 0.25,-0.25c0.13807,0 0.25,0.11193 0.25,0.25c0,0.13807 -0.11193,0.25 -0.25,0.25c-0.13807,0 -0.25,-0.11193 -0.25,-0.25z" fill="#ffffff" fill-rule="nonzero" stroke-width="0.5" stroke-linecap="butt"/><g fill-rule="evenodd" stroke-width="1" stroke-linecap="square"><g><path d="M193.56601,177.07068h30.94166v5.7185h-30.94166z" data-paper-data="{&quot;index&quot;:null}" fill="#c6c6c6"/><path d="M224.50766,177.07068l8.08463,8.08463v5.7185l-8.08463,-8.08463z" data-paper-data="{&quot;index&quot;:null}" fill="#ebebeb"/><path d="M224.50768,182.78916l8.08463,8.08463h-30.94166l-8.08463,-8.08463z" data-paper-data="{&quot;index&quot;:null}" fill="#d7d7d7"/><path d="M193.56601,177.07068h30.94166l8.08463,8.08463v5.7185h-30.94166l-8.08463,-8.08463zM232.5923,190.8738l-8.08463,-8.08463h-30.94166M224.50767,177.07068v5.7185" data-paper-data="{&quot;index&quot;:null}" fill-opacity="0" fill="#000000"/></g><g><path d="M224.48268,177.07068h30.94166v5.7185h-30.94166z" data-paper-data="{&quot;index&quot;:null}" fill="#c6c6c6"/><path d="M255.42433,177.07068l8.08463,8.08463v5.7185l-8.08463,-8.08463z" data-paper-data="{&quot;index&quot;:null}" fill="#ebebeb"/><path d="M255.42435,182.78916l8.08463,8.08463h-30.94166l-8.08463,-8.08463z" data-paper-data="{&quot;index&quot;:null}" fill="#d7d7d7"/><path d="M224.48268,177.07068h30.94166l8.08463,8.08463v5.7185h-30.94166l-8.08463,-8.08463zM263.50897,190.8738l-8.08463,-8.08463h-30.94166M255.42434,177.07068v5.7185" data-paper-data="{&quot;index&quot;:null}" fill-opacity="0" fill="#000000"/></g><g><path d="M255.37991,176.94085h30.94166v5.7185h-30.94166z" data-paper-data="{&quot;index&quot;:null}" fill="#c6c6c6"/><path d="M286.32156,176.94085l8.08463,8.08463v5.7185l-8.08463,-8.08463z" data-paper-data="{&quot;index&quot;:null}" fill="#ebebeb"/><path d="M286.32158,182.65934l8.08463,8.08463h-30.94166l-8.08463,-8.08463z" data-paper-data="{&quot;index&quot;:null}" fill="#d7d7d7"/><path d="M255.37991,176.94085h30.94166l8.08463,8.08463v5.7185h-30.94166l-8.08463,-8.08463zM294.4062,190.74397l-8.08463,-8.08463h-30.94166M286.32157,176.94085v5.7185" data-paper-data="{&quot;index&quot;:null}" fill-opacity="0" fill="#000000"/></g><g><path d="M185.59379,169.12622h30.94166v5.7185h-30.94166z" data-paper-data="{&quot;index&quot;:null}" fill="#c6c6c6"/><path d="M216.53544,169.12622l8.08463,8.08463v5.7185l-8.08463,-8.08463z" data-paper-data="{&quot;index&quot;:null}" fill="#ebebeb"/><path d="M216.53546,174.84471l8.08463,8.08463h-30.94166l-8.08463,-8.08463z" data-paper-data="{&quot;index&quot;:null}" fill="#d7d7d7"/><path d="M185.59379,169.12622h30.94166l8.08463,8.08463v5.7185h-30.94166l-8.08463,-8.08463zM224.62008,182.92934l-8.08463,-8.08463h-30.94166M216.53545,169.12622v5.7185" data-paper-data="{&quot;index&quot;:null}" fill-opacity="0" fill="#000000"/></g></g></g></g></svg>