<svg version="1.1" xmlns="http://www.w3.org/2000/svg" xmlns:xlink="http://www.w3.org/1999/xlink" width="634.13363" height="254.36958" viewBox="0,0,634.13363,254.36958"><g transform="translate(77.06681,-157.14844)"><g data-paper-data="{&quot;isPaintingLayer&quot;:true}" stroke="none" stroke-linejoin="miter" stroke-miterlimit="10" stroke-dasharray="" stroke-dashoffset="0" style="mix-blend-mode: normal"><g fill-rule="evenodd" stroke-width="1" stroke-linecap="square"><path d="M220.89935,189.04844h30.94166v5.7185h-30.94166z" data-paper-data="{&quot;index&quot;:null}" fill="#c6c6c6"/><path d="M251.841,189.04844l8.08463,8.08463v5.7185l-8.08463,-8.08463z" data-paper-data="{&quot;index&quot;:null}" fill="#ebebeb"/><path d="M251.84102,194.76693l8.08463,8.08463h-30.94166l-8.08463,-8.08463z" data-paper-data="{&quot;index&quot;:null}" fill="#d7d7d7"/><path d="M220.89935,189.04844h30.94166l8.08463,8.08463v5.7185h-30.94166l-8.08463,-8.08463zM259.92564,202.85157l-8.08463,-8.08463h-30.94166M251.84101,189.04844v5.7185" data-paper-data="{&quot;index&quot;:null}" fill-opacity="0" fill="#000000"/></g><g fill-rule="evenodd" stroke-width="1" stroke-linecap="square"><path d="M182.29935,181.04844h30.94166v5.7185h-30.94166z" data-paper-data="{&quot;index&quot;:null}" fill="#c6c6c6"/><path d="M213.241,181.04844l8.08463,8.08463v5.7185l-8.08463,-8.08463z" data-paper-data="{&quot;index&quot;:null}" fill="#ebebeb"/><path d="M213.24102,186.76693l8.08463,8.08463h-30.94166l-8.08463,-8.08463z" data-paper-data="{&quot;index&quot;:null}" fill="#d7d7d7"/><path d="M182.29935,181.04844h30.94166l8.08463,8.08463v5.7185h-30.94166l-8.08463,-8.08463zM221.32564,194.85157l-8.08463,-8.08463h-30.94166M213.24101,181.04844v5.7185" data-paper-data="{&quot;index&quot;:null}" fill-opacity="0" fill="#000000"/></g><g fill-rule="evenodd" stroke-width="1" stroke-linecap="square"><path d="M212.89935,181.04844h30.94166v5.7185h-30.94166z" data-paper-data="{&quot;index&quot;:null}" fill="#c6c6c6"/><path d="M243.841,181.04844l8.08463,8.08463v5.7185l-8.08463,-8.08463z" data-paper-data="{&quot;index&quot;:null}" fill="#ebebeb"/><path d="M243.84102,186.76693l8.08463,8.08463h-30.94166l-8.08463,-8.08463z" data-paper-data="{&quot;index&quot;:null}" fill="#d7d7d7"/><path d="M212.89935,181.04844h30.94166l8.08463,8.08463v5.7185h-30.94166l-8.08463,-8.08463zM251.92564,194.85157l-8.08463,-8.08463h-30.94166M243.84101,181.04844v5.7185" data-paper-data="{&quot;index&quot;:null}" fill-opacity="0" fill="#000000"/></g><g fill-rule="evenodd" stroke-width="1" stroke-linecap="square"><path d="M251.49935,189.04844h30.94166v5.7185h-30.94166z" data-paper-data="{&quot;index&quot;:null}" fill="#c6c6c6"/><path d="M282.441,189.04844l8.08463,8.08463v5.7185l-8.08463,-8.08463z" data-paper-data="{&quot;index&quot;:null}" fill="#ebebeb"/><path d="M282.44102,194.76693l8.08463,8.08463h-30.94166l-8.08463,-8.08463z" data-paper-data="{&quot;index&quot;:null}" fill="#d7d7d7"/><path d="M251.49935,189.04844h30.94166l8.08463,8.08463v5.7185h-30.94166l-8.08463,-8.08463zM290.52564,202.85157l-8.08463,-8.08463h-30.94166M282.44101,189.04844v5.7185" data-paper-data="{&quot;index&quot;:null}" fill-opacity="0" fill="#000000"/></g><g fill-rule="evenodd" stroke-width="1" stroke-linecap="square"><path d="M204.89935,173.04844h30.94166v5.7185h-30.94166z" data-paper-data="{&quot;index&quot;:null}" fill="#c6c6c6"/><path d="M235.841,173.04844l8.08463,8.08463v5.7185l-8.08463,-8.08463z" data-paper-data="{&quot;index&quot;:null}" fill="#ebebeb"/><path d="M235.84102,178.76693l8.08463,8.08463h-30.94166l-8.08463,-8.08463z" data-paper-data="{&quot;index&quot;:null}" fill="#d7d7d7"/><path d="M204.89935,173.04844h30.94166l8.08463,8.08463v5.7185h-30.94166l-8.08463,-8.08463zM243.92564,186.85157l-8.08463,-8.08463h-30.94166M235.84101,173.04844v5.7185" data-paper-data="{&quot;index&quot;:null}" fill-opacity="0" fill="#000000"/></g><g fill-rule="evenodd" stroke-width="1" stroke-linecap="square"><path d="M196.92435,165.02344h30.94166v5.7185h-30.94166z" data-paper-data="{&quot;index&quot;:null}" fill="#c6c6c6"/><path d="M227.866,165.02344l8.08463,8.08463v5.7185l-8.08463,-8.08463z" data-paper-data="{&quot;index&quot;:null}" fill="#ebebeb"/><path d="M227.86602,170.74193l8.08463,8.08463h-30.94166l-8.08463,-8.08463z" data-paper-data="{&quot;index&quot;:null}" fill="#d7d7d7"/><path d="M196.92435,165.02344h30.94166l8.08463,8.08463v5.7185h-30.94166l-8.08463,-8.08463zM235.95064,178.82657l-8.08463,-8.08463h-30.94166M227.86601,165.02344v5.7185" data-paper-data="{&quot;index&quot;:null}" fill-opacity="0" fill="#000000"/></g><g fill-rule="evenodd" stroke-width="1" stroke-linecap="square"><path d="M227.79935,165.02344h30.94166v5.7185h-30.94166z" data-paper-data="{&quot;index&quot;:null}" fill="#c6c6c6"/><path d="M258.741,165.02344l8.08463,8.08463v5.7185l-8.08463,-8.08463z" data-paper-data="{&quot;index&quot;:null}" fill="#ebebeb"/><path d="M258.74102,170.74193l8.08463,8.08463h-30.94166l-8.08463,-8.08463z" data-paper-data="{&quot;index&quot;:null}" fill="#d7d7d7"/><path d="M227.79935,165.02344h30.94166l8.08463,8.08463v5.7185h-30.94166l-8.08463,-8.08463zM266.82564,178.82657l-8.08463,-8.08463h-30.94166M258.74101,165.02344v5.7185" data-paper-data="{&quot;index&quot;:null}" fill-opacity="0" fill="#000000"/></g><g fill-rule="evenodd" stroke-width="1" stroke-linecap="square"><path d="M258.67435,165.02344h30.94166v5.7185h-30.94166z" data-paper-data="{&quot;index&quot;:null}" fill="#c6c6c6"/><path d="M289.616,165.02344l8.08463,8.08463v5.7185l-8.08463,-8.08463z" data-paper-data="{&quot;index&quot;:null}" fill="#ebebeb"/><path d="M289.61602,170.74193l8.08463,8.08463h-30.94166l-8.08463,-8.08463z" data-paper-data="{&quot;index&quot;:null}" fill="#d7d7d7"/><path d="M258.67435,165.02344h30.94166l8.08463,8.08463v5.7185h-30.94166l-8.08463,-8.08463zM297.70064,178.82657l-8.08463,-8.08463h-30.94166M289.61601,165.02344v5.7185" data-paper-data="{&quot;index&quot;:null}" fill-opacity="0" fill="#000000"/></g><g fill-rule="evenodd" stroke-width="1" stroke-linecap="square"><path d="M188.92435,157.14844h30.94166v5.7185h-30.94166z" data-paper-data="{&quot;index&quot;:null}" fill="#c6c6c6"/><path d="M219.866,157.14844l8.08463,8.08463v5.7185l-8.08463,-8.08463z" data-paper-data="{&quot;index&quot;:null}" fill="#ebebeb"/><path d="M219.86602,162.86693l8.08463,8.08463h-30.94166l-8.08463,-8.08463z" data-paper-data="{&quot;index&quot;:null}" fill="#d7d7d7"/><path d="M188.92435,157.14844h30.94166l8.08463,8.08463v5.7185h-30.94166l-8.08463,-8.08463zM227.95064,170.95157l-8.08463,-8.08463h-30.94166M219.86601,157.14844v5.7185" data-paper-data="{&quot;index&quot;:null}" fill-opacity="0" fill="#000000"/></g><path d="M-77.06681,397.7545c0,-0.13807 0.11193,-0.25 0.25,-0.25c0.13807,0 0.25,0.11193 0.25,0.25c0,0.13807 -0.11193,0.25 -0.25,0.25c-0.13807,0 -0.25,-0.11193 -0.25,-0.25z" fill="#ffffff" fill-rule="nonzero" stroke-width="0.5" stroke-linecap="butt"/><path d="M556.56682,411.26802c0,-0.13807 0.11193,-0.25 0.25,-0.25c0.13807,0 0.25,0.11193 0.25,0.25c0,0.13807 -0.11193,0.25 -0.25,0.25c-0.13807,0 -0.25,-0.11193 -0.25,-0.25z" fill="#ffffff" fill-rule="nonzero" stroke-width="0.5" stroke-linecap="butt"/></g></g></svg>