<svg version="1.1" xmlns="http://www.w3.org/2000/svg" xmlns:xlink="http://www.w3.org/1999/xlink" width="604.1036" height="240.70584" viewBox="0,0,604.1036,240.70584"><g transform="translate(59.79955,-156.98038)"><g data-paper-data="{&quot;isPaintingLayer&quot;:true}" stroke="none" stroke-linejoin="miter" stroke-miterlimit="10" stroke-dasharray="" stroke-dashoffset="0" style="mix-blend-mode: normal"><path d="M-59.79955,392.93171c0,-0.13807 0.11193,-0.25 0.25,-0.25c0.13807,0 0.25,0.11193 0.25,0.25c0,0.13807 -0.11193,0.25 -0.25,0.25c-0.13807,0 -0.25,-0.11193 -0.25,-0.25z" fill="#ffffff" fill-rule="nonzero" stroke-width="0.5" stroke-linecap="butt"/><path d="M543.80405,397.43622c0,-0.13807 0.11193,-0.25 0.25,-0.25c0.13807,0 0.25,0.11193 0.25,0.25c0,0.13807 -0.11193,0.25 -0.25,0.25c-0.13807,0 -0.25,-0.11193 -0.25,-0.25z" fill="#ffffff" fill-rule="nonzero" stroke-width="0.5" stroke-linecap="butt"/><g fill-rule="evenodd" stroke-width="1" stroke-linecap="square"><g><path d="M224.79658,189.21649h30.94166v5.7185h-30.94166z" data-paper-data="{&quot;index&quot;:null}" fill="#c6c6c6"/><path d="M255.73822,189.21649l8.08463,8.08463v5.7185l-8.08463,-8.08463z" data-paper-data="{&quot;index&quot;:null}" fill="#ebebeb"/><path d="M255.73824,194.93498l8.08463,8.08463h-30.94166l-8.08463,-8.08463z" data-paper-data="{&quot;index&quot;:null}" fill="#d7d7d7"/><path d="M224.79658,189.21649h30.94166l8.08463,8.08463v5.7185h-30.94166l-8.08463,-8.08463zM263.82286,203.01962l-8.08463,-8.08463h-30.94166M255.73824,189.21649v5.7185" data-paper-data="{&quot;index&quot;:null}" fill-opacity="0" fill="#000000"/></g><g><path d="M186.22158,181.11649h30.94166v5.7185h-30.94166z" data-paper-data="{&quot;index&quot;:null}" fill="#c6c6c6"/><path d="M217.16323,181.11649l8.08463,8.08463v5.7185l-8.08463,-8.08463z" data-paper-data="{&quot;index&quot;:null}" fill="#ebebeb"/><path d="M217.16325,186.83498l8.08463,8.08463h-30.94166l-8.08463,-8.08463z" data-paper-data="{&quot;index&quot;:null}" fill="#d7d7d7"/><path d="M186.22158,181.11649h30.94166l8.08463,8.08463v5.7185h-30.94166l-8.08463,-8.08463zM225.24786,194.91962l-8.08463,-8.08463h-30.94166M217.16323,181.11649v5.7185" data-paper-data="{&quot;index&quot;:null}" fill-opacity="0" fill="#000000"/></g><g><path d="M216.82157,181.26649h30.94166v5.7185h-30.94166z" data-paper-data="{&quot;index&quot;:null}" fill="#c6c6c6"/><path d="M247.76323,181.26649l8.08463,8.08463v5.7185l-8.08463,-8.08463z" data-paper-data="{&quot;index&quot;:null}" fill="#ebebeb"/><path d="M247.76325,186.98498l8.08463,8.08463h-30.94166l-8.08463,-8.08463z" data-paper-data="{&quot;index&quot;:null}" fill="#d7d7d7"/><path d="M216.82157,181.26649h30.94166l8.08463,8.08463v5.7185h-30.94166l-8.08463,-8.08463zM255.84787,195.06962l-8.08463,-8.08463h-30.94166M247.76323,181.26649v5.7185" data-paper-data="{&quot;index&quot;:null}" fill-opacity="0" fill="#000000"/></g><g><path d="M208.62157,173.04149h30.94166v5.7185h-30.94166z" data-paper-data="{&quot;index&quot;:null}" fill="#c6c6c6"/><path d="M239.56322,173.04149l8.08463,8.08463v5.7185l-8.08463,-8.08463z" data-paper-data="{&quot;index&quot;:null}" fill="#ebebeb"/><path d="M239.56324,178.75998l8.08463,8.08463h-30.94166l-8.08463,-8.08463z" data-paper-data="{&quot;index&quot;:null}" fill="#d7d7d7"/><path d="M208.62157,173.04149h30.94166l8.08463,8.08463v5.7185h-30.94166l-8.08463,-8.08463zM247.64787,186.84462l-8.08463,-8.08463h-30.94166M239.56324,173.04149v5.7185" data-paper-data="{&quot;index&quot;:null}" fill-opacity="0" fill="#000000"/></g><g><path d="M239.69657,173.11649h30.94166v5.7185h-30.94166z" data-paper-data="{&quot;index&quot;:null}" fill="#c6c6c6"/><path d="M270.63823,173.11649l8.08463,8.08463v5.7185l-8.08463,-8.08463z" data-paper-data="{&quot;index&quot;:null}" fill="#ebebeb"/><path d="M270.63825,178.83498l8.08463,8.08463h-30.94166l-8.08463,-8.08463z" data-paper-data="{&quot;index&quot;:null}" fill="#d7d7d7"/><path d="M239.69657,173.11649h30.94166l8.08463,8.08463v5.7185h-30.94166l-8.08463,-8.08463zM278.72286,186.91962l-8.08463,-8.08463h-30.94166M270.63824,173.11649v5.7185" data-paper-data="{&quot;index&quot;:null}" fill-opacity="0" fill="#000000"/></g><g><path d="M270.69658,173.11649h30.94166v5.7185h-30.94166z" data-paper-data="{&quot;index&quot;:null}" fill="#c6c6c6"/><path d="M301.63823,173.11649l8.08463,8.08463v5.7185l-8.08463,-8.08463z" data-paper-data="{&quot;index&quot;:null}" fill="#ebebeb"/><path d="M301.63825,178.83498l8.08463,8.08463h-30.94166l-8.08463,-8.08463z" data-paper-data="{&quot;index&quot;:null}" fill="#d7d7d7"/><path d="M270.69658,173.11649h30.94166l8.08463,8.08463v5.7185h-30.94166l-8.08463,-8.08463zM309.72286,186.91962l-8.08463,-8.08463h-30.94166M301.63824,173.11649v5.7185" data-paper-data="{&quot;index&quot;:null}" fill-opacity="0" fill="#000000"/></g><g><path d="M170.27713,165.04982h30.94166v5.7185h-30.94166z" data-paper-data="{&quot;index&quot;:null}" fill="#c6c6c6"/><path d="M201.21877,165.04982l8.08463,8.08463v5.7185l-8.08463,-8.08463z" data-paper-data="{&quot;index&quot;:null}" fill="#ebebeb"/><path d="M201.21879,170.76831l8.08463,8.08463h-30.94166l-8.08463,-8.08463z" data-paper-data="{&quot;index&quot;:null}" fill="#d7d7d7"/><path d="M170.27713,165.04982h30.94166l8.08463,8.08463v5.7185h-30.94166l-8.08463,-8.08463zM209.30342,178.85295l-8.08463,-8.08463h-30.94166M201.21879,165.04982v5.7185" data-paper-data="{&quot;index&quot;:null}" fill-opacity="0" fill="#000000"/></g><g><path d="M200.88824,165.00816h30.94166v5.7185h-30.94166z" data-paper-data="{&quot;index&quot;:null}" fill="#c6c6c6"/><path d="M231.8299,165.00816l8.08463,8.08463v5.7185l-8.08463,-8.08463z" data-paper-data="{&quot;index&quot;:null}" fill="#ebebeb"/><path d="M231.82992,170.72665l8.08463,8.08463h-30.94166l-8.08463,-8.08463z" data-paper-data="{&quot;index&quot;:null}" fill="#d7d7d7"/><path d="M200.88824,165.00816h30.94166l8.08463,8.08463v5.7185h-30.94166l-8.08463,-8.08463zM239.91453,178.81129l-8.08463,-8.08463h-30.94166M231.8299,165.00816v5.7185" data-paper-data="{&quot;index&quot;:null}" fill-opacity="0" fill="#000000"/></g><g><path d="M231.84658,165.09149h30.94166v5.7185h-30.94166z" data-paper-data="{&quot;index&quot;:null}" fill="#c6c6c6"/><path d="M262.78823,165.09149l8.08463,8.08463v5.7185l-8.08463,-8.08463z" data-paper-data="{&quot;index&quot;:null}" fill="#ebebeb"/><path d="M262.78824,170.80998l8.08463,8.08463h-30.94166l-8.08463,-8.08463z" data-paper-data="{&quot;index&quot;:null}" fill="#d7d7d7"/><path d="M231.84658,165.09149h30.94166l8.08463,8.08463v5.7185h-30.94166l-8.08463,-8.08463zM270.87287,178.89462l-8.08463,-8.08463h-30.94166M262.78824,165.09149v5.7185" data-paper-data="{&quot;index&quot;:null}" fill-opacity="0" fill="#000000"/></g><g><path d="M262.72158,165.13316h30.94166v5.7185h-30.94166z" data-paper-data="{&quot;index&quot;:null}" fill="#c6c6c6"/><path d="M293.66323,165.13316l8.08463,8.08463v5.7185l-8.08463,-8.08463z" data-paper-data="{&quot;index&quot;:null}" fill="#ebebeb"/><path d="M293.66324,170.85165l8.08463,8.08463h-30.94166l-8.08463,-8.08463z" data-paper-data="{&quot;index&quot;:null}" fill="#d7d7d7"/><path d="M262.72158,165.13316h30.94166l8.08463,8.08463v5.7185h-30.94166l-8.08463,-8.08463zM301.74787,178.93629l-8.08463,-8.08463h-30.94166M293.66324,165.13316v5.7185" data-paper-data="{&quot;index&quot;:null}" fill-opacity="0" fill="#000000"/></g><g><path d="M223.62434,156.98038h30.94166v5.7185h-30.94166z" data-paper-data="{&quot;index&quot;:null}" fill="#c6c6c6"/><path d="M254.566,156.98038l8.08463,8.08463v5.7185l-8.08463,-8.08463z" data-paper-data="{&quot;index&quot;:null}" fill="#ebebeb"/><path d="M254.56602,162.69887l8.08463,8.08463h-30.94166l-8.08463,-8.08463z" data-paper-data="{&quot;index&quot;:null}" fill="#d7d7d7"/><path d="M223.62434,156.98038h30.94166l8.08463,8.08463v5.7185h-30.94166l-8.08463,-8.08463zM262.65063,170.78351l-8.08463,-8.08463h-30.94166M254.56601,156.98038v5.7185" data-paper-data="{&quot;index&quot;:null}" fill-opacity="0" fill="#000000"/></g></g></g></g></svg>