<svg version="1.1" xmlns="http://www.w3.org/2000/svg" xmlns:xlink="http://www.w3.org/1999/xlink" width="628.12762" height="240.16669" viewBox="0,0,628.12762,240.16669"><g transform="translate(83.82357,-165.027)"><g data-paper-data="{&quot;isPaintingLayer&quot;:true}" stroke="none" stroke-linejoin="miter" stroke-miterlimit="10" stroke-dasharray="" stroke-dashoffset="0" style="mix-blend-mode: normal"><path d="M-83.82357,404.94369c0,-0.13807 0.11193,-0.25 0.25,-0.25c0.13807,0 0.25,0.11193 0.25,0.25c0,0.13807 -0.11193,0.25 -0.25,0.25c-0.13807,0 -0.25,-0.11193 -0.25,-0.25z" fill="#ffffff" fill-rule="nonzero" stroke-width="0.5" stroke-linecap="butt"/><path d="M543.80405,398.93769c0,-0.13807 0.11193,-0.25 0.25,-0.25c0.13807,0 0.25,0.11193 0.25,0.25c0,0.13807 -0.11193,0.25 -0.25,0.25c-0.13807,0 -0.25,-0.11193 -0.25,-0.25z" fill="#ffffff" fill-rule="nonzero" stroke-width="0.5" stroke-linecap="butt"/><g fill-rule="evenodd" stroke-width="1" stroke-linecap="square"><g><path d="M228.28646,181.16987h30.94166v5.7185h-30.94166z" data-paper-data="{&quot;index&quot;:null}" fill="#c6c6c6"/><path d="M259.22811,181.16987l8.08463,8.08463v5.7185l-8.08463,-8.08463z" data-paper-data="{&quot;index&quot;:null}" fill="#ebebeb"/><path d="M259.22813,186.88836l8.08463,8.08463h-30.94166l-8.08463,-8.08463z" data-paper-data="{&quot;index&quot;:null}" fill="#d7d7d7"/><path d="M228.28646,181.16987h30.94166l8.08463,8.08463v5.7185h-30.94166l-8.08463,-8.08463zM267.31275,194.973l-8.08463,-8.08463h-30.94166M259.22812,181.16987v5.7185" data-paper-data="{&quot;index&quot;:null}" fill-opacity="0" fill="#000000"/></g><g><path d="M189.65133,173.14212h30.94166v5.7185h-30.94166z" data-paper-data="{&quot;index&quot;:null}" fill="#c6c6c6"/><path d="M220.59298,173.14212l8.08463,8.08463v5.7185l-8.08463,-8.08463z" data-paper-data="{&quot;index&quot;:null}" fill="#ebebeb"/><path d="M220.593,178.8606l8.08463,8.08463h-30.94166l-8.08463,-8.08463z" data-paper-data="{&quot;index&quot;:null}" fill="#d7d7d7"/><path d="M189.65133,173.14212h30.94166l8.08463,8.08463v5.7185h-30.94166l-8.08463,-8.08463zM228.67762,186.94523l-8.08463,-8.08463h-30.94166M220.59299,173.14212v5.7185" data-paper-data="{&quot;index&quot;:null}" fill-opacity="0" fill="#000000"/></g><g><path d="M220.568,173.14212h30.94166v5.7185h-30.94166z" data-paper-data="{&quot;index&quot;:null}" fill="#c6c6c6"/><path d="M251.50965,173.14212l8.08463,8.08463v5.7185l-8.08463,-8.08463z" data-paper-data="{&quot;index&quot;:null}" fill="#ebebeb"/><path d="M251.50967,178.8606l8.08463,8.08463h-30.94166l-8.08463,-8.08463z" data-paper-data="{&quot;index&quot;:null}" fill="#d7d7d7"/><path d="M220.568,173.14212h30.94166l8.08463,8.08463v5.7185h-30.94166l-8.08463,-8.08463zM259.59429,186.94523l-8.08463,-8.08463h-30.94166M251.50966,173.14212v5.7185" data-paper-data="{&quot;index&quot;:null}" fill-opacity="0" fill="#000000"/></g><g><path d="M251.32237,173.15514h30.94166v5.7185h-30.94166z" data-paper-data="{&quot;index&quot;:null}" fill="#c6c6c6"/><path d="M282.26402,173.15514l8.08463,8.08463v5.7185l-8.08463,-8.08463z" data-paper-data="{&quot;index&quot;:null}" fill="#ebebeb"/><path d="M282.26404,178.87363l8.08463,8.08463h-30.94166l-8.08463,-8.08463z" data-paper-data="{&quot;index&quot;:null}" fill="#d7d7d7"/><path d="M251.32237,173.15514h30.94166l8.08463,8.08463v5.7185h-30.94166l-8.08463,-8.08463zM290.34866,186.95826l-8.08463,-8.08463h-30.94166M282.26403,173.15514v5.7185" data-paper-data="{&quot;index&quot;:null}" fill-opacity="0" fill="#000000"/></g><g><path d="M211.85788,165.02701h30.94166v5.7185h-30.94166z" data-paper-data="{&quot;index&quot;:null}" fill="#c6c6c6"/><path d="M242.79953,165.02701l8.08463,8.08463v5.7185l-8.08463,-8.08463z" data-paper-data="{&quot;index&quot;:null}" fill="#ebebeb"/><path d="M242.79955,170.7455l8.08463,8.08463h-30.94166l-8.08463,-8.08463z" data-paper-data="{&quot;index&quot;:null}" fill="#d7d7d7"/><path d="M211.85788,165.02701h30.94166l8.08463,8.08463v5.7185h-30.94166l-8.08463,-8.08463zM250.88417,178.83014l-8.08463,-8.08463h-30.94166M242.79954,165.02701v5.7185" data-paper-data="{&quot;index&quot;:null}" fill-opacity="0" fill="#000000"/></g></g></g></g></svg>