<svg version="1.1" xmlns="http://www.w3.org/2000/svg" xmlns:xlink="http://www.w3.org/1999/xlink" width="634.13364" height="228.21896" viewBox="0,0,634.13364,228.21896"><g transform="translate(85.32508,-164.96272)"><g data-paper-data="{&quot;isPaintingLayer&quot;:true}" stroke="none" stroke-linejoin="miter" stroke-miterlimit="10" stroke-dasharray="" stroke-dashoffset="0" style="mix-blend-mode: normal"><g fill-rule="evenodd" stroke-width="1" stroke-linecap="square"><path d="M201.80828,181.23415h30.94166v5.7185h-30.94166z" data-paper-data="{&quot;index&quot;:null}" fill="#c6c6c6"/><path d="M232.74993,181.23415l8.08463,8.08463v5.7185l-8.08463,-8.08463z" data-paper-data="{&quot;index&quot;:null}" fill="#ebebeb"/><path d="M232.74995,186.95264l8.08463,8.08463h-30.94166l-8.08463,-8.08463z" data-paper-data="{&quot;index&quot;:null}" fill="#d7d7d7"/><path d="M201.80828,181.23415h30.94166l8.08463,8.08463v5.7185h-30.94166l-8.08463,-8.08463zM240.83457,195.03728l-8.08463,-8.08463h-30.94166M232.74994,181.23415v5.7185" data-paper-data="{&quot;index&quot;:null}" fill-opacity="0" fill="#000000"/></g><g fill-rule="evenodd" stroke-width="1" stroke-linecap="square"><path d="M232.63686,181.1913h30.94166v5.7185h-30.94166z" data-paper-data="{&quot;index&quot;:null}" fill="#c6c6c6"/><path d="M263.57851,181.1913l8.08463,8.08463v5.7185l-8.08463,-8.08463z" data-paper-data="{&quot;index&quot;:null}" fill="#ebebeb"/><path d="M263.57853,186.90979l8.08463,8.08463h-30.94166l-8.08463,-8.08463z" data-paper-data="{&quot;index&quot;:null}" fill="#d7d7d7"/><path d="M232.63686,181.1913h30.94166l8.08463,8.08463v5.7185h-30.94166l-8.08463,-8.08463zM271.66315,194.99443l-8.08463,-8.08463h-30.94166M263.57852,181.1913v5.7185" data-paper-data="{&quot;index&quot;:null}" fill-opacity="0" fill="#000000"/></g><g fill-rule="evenodd" stroke-width="1" stroke-linecap="square"><path d="M224.53686,173.01987h30.94166v5.7185h-30.94166z" data-paper-data="{&quot;index&quot;:null}" fill="#c6c6c6"/><path d="M255.47851,173.01987l8.08463,8.08463v5.7185l-8.08463,-8.08463z" data-paper-data="{&quot;index&quot;:null}" fill="#ebebeb"/><path d="M255.47853,178.73836l8.08463,8.08463h-30.94166l-8.08463,-8.08463z" data-paper-data="{&quot;index&quot;:null}" fill="#d7d7d7"/><path d="M224.53686,173.01987h30.94166l8.08463,8.08463v5.7185h-30.94166l-8.08463,-8.08463zM263.56315,186.823l-8.08463,-8.08463h-30.94166M255.47852,173.01987v5.7185" data-paper-data="{&quot;index&quot;:null}" fill-opacity="0" fill="#000000"/></g><g fill-rule="evenodd" stroke-width="1" stroke-linecap="square"><path d="M255.394,173.04844h30.94166v5.7185h-30.94166z" data-paper-data="{&quot;index&quot;:null}" fill="#c6c6c6"/><path d="M286.33565,173.04844l8.08463,8.08463v5.7185l-8.08463,-8.08463z" data-paper-data="{&quot;index&quot;:null}" fill="#ebebeb"/><path d="M286.33567,178.76693l8.08463,8.08463h-30.94166l-8.08463,-8.08463z" data-paper-data="{&quot;index&quot;:null}" fill="#d7d7d7"/><path d="M255.394,173.04844h30.94166l8.08463,8.08463v5.7185h-30.94166l-8.08463,-8.08463zM294.42028,186.85157l-8.08463,-8.08463h-30.94166M286.33565,173.04844v5.7185" data-paper-data="{&quot;index&quot;:null}" fill-opacity="0" fill="#000000"/></g><g fill-rule="evenodd" stroke-width="1" stroke-linecap="square"><path d="M247.32257,165.00558h30.94166v5.7185h-30.94166z" data-paper-data="{&quot;index&quot;:null}" fill="#c6c6c6"/><path d="M278.26421,165.00558l8.08463,8.08463v5.7185l-8.08463,-8.08463z" data-paper-data="{&quot;index&quot;:null}" fill="#ebebeb"/><path d="M278.26424,170.72407l8.08463,8.08463h-30.94166l-8.08463,-8.08463z" data-paper-data="{&quot;index&quot;:null}" fill="#d7d7d7"/><path d="M247.32257,165.00558h30.94166l8.08463,8.08463v5.7185h-30.94166l-8.08463,-8.08463zM286.34886,178.80871l-8.08463,-8.08463h-30.94166M278.26423,165.00558v5.7185" data-paper-data="{&quot;index&quot;:null}" fill-opacity="0" fill="#000000"/></g><g fill-rule="evenodd" stroke-width="1" stroke-linecap="square"><path d="M185.57972,164.96272h30.94166v5.7185h-30.94166z" data-paper-data="{&quot;index&quot;:null}" fill="#c6c6c6"/><path d="M216.52137,164.96272l8.08463,8.08463v5.7185l-8.08463,-8.08463z" data-paper-data="{&quot;index&quot;:null}" fill="#ebebeb"/><path d="M216.52139,170.68121l8.08463,8.08463h-30.94166l-8.08463,-8.08463z" data-paper-data="{&quot;index&quot;:null}" fill="#d7d7d7"/><path d="M185.57972,164.96272h30.94166l8.08463,8.08463v5.7185h-30.94166l-8.08463,-8.08463zM224.60601,178.76585l-8.08463,-8.08463h-30.94166M216.52138,164.96272v5.7185" data-paper-data="{&quot;index&quot;:null}" fill-opacity="0" fill="#000000"/></g><path d="M-85.32507,388.42718c0,-0.13807 0.11193,-0.25 0.25,-0.25c0.13807,0 0.25,0.11193 0.25,0.25c0,0.13807 -0.11193,0.25 -0.25,0.25c-0.13807,0 -0.25,-0.11193 -0.25,-0.25z" fill="#ffffff" fill-rule="nonzero" stroke-width="0.5" stroke-linecap="butt"/><path d="M548.30857,392.93168c0,-0.13807 0.11193,-0.25 0.25,-0.25c0.13807,0 0.25,0.11193 0.25,0.25c0,0.13807 -0.11193,0.25 -0.25,0.25c-0.13807,0 -0.25,-0.11193 -0.25,-0.25z" fill="#ffffff" fill-rule="nonzero" stroke-width="0.5" stroke-linecap="butt"/></g></g></svg>