<svg version="1.1" xmlns="http://www.w3.org/2000/svg" xmlns:xlink="http://www.w3.org/1999/xlink" width="587.58709" height="215.44272" viewBox="0,0,587.58709,215.44272"><g transform="translate(50.03979,-169.04827)"><g data-paper-data="{&quot;isPaintingLayer&quot;:true}" stroke="none" stroke-linejoin="miter" stroke-miterlimit="10" stroke-dasharray="" stroke-dashoffset="0" style="mix-blend-mode: normal"><g fill-rule="evenodd" stroke-width="1" stroke-linecap="square"><path d="M209.04499,177.13558h30.94166v5.7185h-30.94166z" data-paper-data="{&quot;index&quot;:null}" fill="#c6c6c6"/><path d="M239.98663,177.13558l8.08463,8.08463v5.7185l-8.08463,-8.08463z" data-paper-data="{&quot;index&quot;:null}" fill="#ebebeb"/><path d="M239.98666,182.85407l8.08463,8.08463h-30.94166l-8.08463,-8.08463z" data-paper-data="{&quot;index&quot;:null}" fill="#d7d7d7"/><path d="M209.04499,177.13558h30.94166l8.08463,8.08463v5.7185h-30.94166l-8.08463,-8.08463zM248.07128,190.93871l-8.08463,-8.08463h-30.94166M239.98665,177.13558v5.7185" data-paper-data="{&quot;index&quot;:null}" fill-opacity="0" fill="#000000"/></g><g fill-rule="evenodd" stroke-width="1" stroke-linecap="square"><path d="M239.94221,177.1486h30.94166v5.7185h-30.94166z" data-paper-data="{&quot;index&quot;:null}" fill="#c6c6c6"/><path d="M270.88387,177.1486l8.08463,8.08463v5.7185l-8.08463,-8.08463z" data-paper-data="{&quot;index&quot;:null}" fill="#ebebeb"/><path d="M270.88388,182.86709l8.08463,8.08463h-30.94166l-8.08463,-8.08463z" data-paper-data="{&quot;index&quot;:null}" fill="#d7d7d7"/><path d="M239.94221,177.1486h30.94166l8.08463,8.08463v5.7185h-30.94166l-8.08463,-8.08463zM278.96851,190.95173l-8.08463,-8.08463h-30.94166M270.88388,177.1486v5.7185" data-paper-data="{&quot;index&quot;:null}" fill-opacity="0" fill="#000000"/></g><g fill-rule="evenodd" stroke-width="1" stroke-linecap="square"><path d="M201.03149,169.13559h30.94166v5.7185h-30.94166z" data-paper-data="{&quot;index&quot;:null}" fill="#c6c6c6"/><path d="M231.97316,169.13559l8.08463,8.08463v5.7185l-8.08463,-8.08463z" data-paper-data="{&quot;index&quot;:null}" fill="#ebebeb"/><path d="M231.97318,174.85408l8.08463,8.08463h-30.94166l-8.08463,-8.08463z" data-paper-data="{&quot;index&quot;:null}" fill="#d7d7d7"/><path d="M201.03149,169.13559h30.94166l8.08463,8.08463v5.7185h-30.94166l-8.08463,-8.08463zM240.0578,182.93872l-8.08463,-8.08463h-30.94166M231.97317,169.13559v5.7185" data-paper-data="{&quot;index&quot;:null}" fill-opacity="0" fill="#000000"/></g><g fill-rule="evenodd" stroke-width="1" stroke-linecap="square"><path d="M232.02831,169.04827l8.08463,8.08463v5.7185l-8.08463,-8.08463z" data-paper-data="{&quot;index&quot;:null}" fill="#ebebeb"/><path d="M231.98389,169.0613h30.94166v5.7185h-30.94166z" data-paper-data="{&quot;index&quot;:null}" fill="#c6c6c6"/><path d="M262.92553,169.0613l8.08463,8.08463v5.7185l-8.08463,-8.08463z" data-paper-data="{&quot;index&quot;:null}" fill="#ebebeb"/><path d="M262.92555,174.77979l8.08463,8.08463h-30.94166l-8.08463,-8.08463z" data-paper-data="{&quot;index&quot;:null}" fill="#d7d7d7"/><path d="M231.98389,169.0613h30.94166l8.08463,8.08463v5.7185h-30.94166l-8.08463,-8.08463zM271.01018,182.86443l-8.08463,-8.08463h-30.94166M262.92553,169.0613v5.7185" data-paper-data="{&quot;index&quot;:null}" fill-opacity="0" fill="#000000"/></g><path d="M-49.78979,382.48949c0.25,0 0.25,0.25 0.25,0.25c0,0.5 0,1.0015 0,1.5015c0,0 0,0.25 -0.25,0.25c-0.25,0 -0.25,-0.25 -0.25,-0.25c0,-0.5 0,-1 0,-1.5v-0.0015c0,0 0,-0.25 0.25,-0.25z" fill="#ffffff" fill-rule="nonzero" stroke-width="0.5" stroke-linecap="butt"/><path d="M537.0473,379.73649c0,-0.13807 0.11193,-0.25 0.25,-0.25c0.13807,0 0.25,0.11193 0.25,0.25c0,0.13807 -0.11193,0.25 -0.25,0.25c-0.13807,0 -0.25,-0.11193 -0.25,-0.25z" fill="#ffffff" fill-rule="nonzero" stroke-width="0.5" stroke-linecap="butt"/></g></g></svg>