<svg version="1.1" xmlns="http://www.w3.org/2000/svg" xmlns:xlink="http://www.w3.org/1999/xlink" width="623.62312" height="239.28671" viewBox="0,0,623.62312,239.28671"><g transform="translate(71.06081,-157.21629)"><g data-paper-data="{&quot;isPaintingLayer&quot;:true}" stroke="none" stroke-linejoin="miter" stroke-miterlimit="10" stroke-dasharray="" stroke-dashoffset="0" style="mix-blend-mode: normal"><g fill-rule="evenodd" stroke-width="1" stroke-linecap="square"><path d="M175.27256,188.98058h30.94166v5.7185h-30.94166z" data-paper-data="{&quot;index&quot;:null}" fill="#c6c6c6"/><path d="M206.21421,188.98058l8.08463,8.08463v5.7185l-8.08463,-8.08463z" data-paper-data="{&quot;index&quot;:null}" fill="#ebebeb"/><path d="M206.21423,194.69907l8.08463,8.08463h-30.94166l-8.08463,-8.08463z" data-paper-data="{&quot;index&quot;:null}" fill="#d7d7d7"/><path d="M175.27256,188.98058h30.94166l8.08463,8.08463v5.7185h-30.94166l-8.08463,-8.08463zM214.29885,202.78371l-8.08463,-8.08463h-30.94166M206.21422,188.98058v5.7185" data-paper-data="{&quot;index&quot;:null}" fill-opacity="0" fill="#000000"/></g><g fill-rule="evenodd" stroke-width="1" stroke-linecap="square"><path d="M205.98685,188.98058h30.94166v5.7185h-30.94166z" data-paper-data="{&quot;index&quot;:null}" fill="#c6c6c6"/><path d="M236.9285,188.98058l8.08463,8.08463v5.7185l-8.08463,-8.08463z" data-paper-data="{&quot;index&quot;:null}" fill="#ebebeb"/><path d="M236.92852,194.69907l8.08463,8.08463h-30.94166l-8.08463,-8.08463z" data-paper-data="{&quot;index&quot;:null}" fill="#d7d7d7"/><path d="M205.98685,188.98058h30.94166l8.08463,8.08463v5.7185h-30.94166l-8.08463,-8.08463zM245.01314,202.78371l-8.08463,-8.08463h-30.94166M236.92851,188.98058v5.7185" data-paper-data="{&quot;index&quot;:null}" fill-opacity="0" fill="#000000"/></g><g fill-rule="evenodd" stroke-width="1" stroke-linecap="square"><path d="M167.27256,180.98058h30.94166v5.7185h-30.94166z" data-paper-data="{&quot;index&quot;:null}" fill="#c6c6c6"/><path d="M198.21421,180.98058l8.08463,8.08463v5.7185l-8.08463,-8.08463z" data-paper-data="{&quot;index&quot;:null}" fill="#ebebeb"/><path d="M198.21423,186.69907l8.08463,8.08463h-30.94166l-8.08463,-8.08463z" data-paper-data="{&quot;index&quot;:null}" fill="#d7d7d7"/><path d="M167.27256,180.98058h30.94166l8.08463,8.08463v5.7185h-30.94166l-8.08463,-8.08463zM206.29885,194.78371l-8.08463,-8.08463h-30.94166M198.21422,180.98058v5.7185" data-paper-data="{&quot;index&quot;:null}" fill-opacity="0" fill="#000000"/></g><g fill-rule="evenodd" stroke-width="1" stroke-linecap="square"><path d="M198.12971,180.98058h30.94166v5.7185h-30.94166z" data-paper-data="{&quot;index&quot;:null}" fill="#c6c6c6"/><path d="M229.07136,180.98058l8.08463,8.08463v5.7185l-8.08463,-8.08463z" data-paper-data="{&quot;index&quot;:null}" fill="#ebebeb"/><path d="M229.07138,186.69907l8.08463,8.08463h-30.94166l-8.08463,-8.08463z" data-paper-data="{&quot;index&quot;:null}" fill="#d7d7d7"/><path d="M198.12971,180.98058h30.94166l8.08463,8.08463v5.7185h-30.94166l-8.08463,-8.08463zM237.156,194.78371l-8.08463,-8.08463h-30.94166M229.07137,180.98058v5.7185" data-paper-data="{&quot;index&quot;:null}" fill-opacity="0" fill="#000000"/></g><g fill-rule="evenodd" stroke-width="1" stroke-linecap="square"><path d="M228.98685,180.98058h30.94166v5.7185h-30.94166z" data-paper-data="{&quot;index&quot;:null}" fill="#c6c6c6"/><path d="M259.9285,180.98058l8.08463,8.08463v5.7185l-8.08463,-8.08463z" data-paper-data="{&quot;index&quot;:null}" fill="#ebebeb"/><path d="M259.92852,186.69907l8.08463,8.08463h-30.94166l-8.08463,-8.08463z" data-paper-data="{&quot;index&quot;:null}" fill="#d7d7d7"/><path d="M228.98685,180.98058h30.94166l8.08463,8.08463v5.7185h-30.94166l-8.08463,-8.08463zM268.01314,194.78371l-8.08463,-8.08463h-30.94166M259.92851,180.98058v5.7185" data-paper-data="{&quot;index&quot;:null}" fill-opacity="0" fill="#000000"/></g><g fill-rule="evenodd" stroke-width="1" stroke-linecap="square"><path d="M189.41542,172.98058h30.94166v5.7185h-30.94166z" data-paper-data="{&quot;index&quot;:null}" fill="#c6c6c6"/><path d="M220.35707,172.98058l8.08463,8.08463v5.7185l-8.08463,-8.08463z" data-paper-data="{&quot;index&quot;:null}" fill="#ebebeb"/><path d="M220.35709,178.69907l8.08463,8.08463h-30.94166l-8.08463,-8.08463z" data-paper-data="{&quot;index&quot;:null}" fill="#d7d7d7"/><path d="M189.41542,172.98058h30.94166l8.08463,8.08463v5.7185h-30.94166l-8.08463,-8.08463zM228.44171,186.78371l-8.08463,-8.08463h-30.94166M220.35708,172.98058v5.7185" data-paper-data="{&quot;index&quot;:null}" fill-opacity="0" fill="#000000"/></g><g fill-rule="evenodd" stroke-width="1" stroke-linecap="square"><path d="M220.27256,172.98058h30.94166v5.7185h-30.94166z" data-paper-data="{&quot;index&quot;:null}" fill="#c6c6c6"/><path d="M251.21421,172.98058l8.08463,8.08463v5.7185l-8.08463,-8.08463z" data-paper-data="{&quot;index&quot;:null}" fill="#ebebeb"/><path d="M251.21423,178.69907l8.08463,8.08463h-30.94166l-8.08463,-8.08463z" data-paper-data="{&quot;index&quot;:null}" fill="#d7d7d7"/><path d="M220.27256,172.98058h30.94166l8.08463,8.08463v5.7185h-30.94166l-8.08463,-8.08463zM259.29885,186.78371l-8.08463,-8.08463h-30.94166M251.21422,172.98058v5.7185" data-paper-data="{&quot;index&quot;:null}" fill-opacity="0" fill="#000000"/></g><g fill-rule="evenodd" stroke-width="1" stroke-linecap="square"><path d="M251.12971,172.98058h30.94166v5.7185h-30.94166z" data-paper-data="{&quot;index&quot;:null}" fill="#c6c6c6"/><path d="M282.07136,172.98058l8.08463,8.08463v5.7185l-8.08463,-8.08463z" data-paper-data="{&quot;index&quot;:null}" fill="#ebebeb"/><path d="M282.07138,178.69907l8.08463,8.08463h-30.94166l-8.08463,-8.08463z" data-paper-data="{&quot;index&quot;:null}" fill="#d7d7d7"/><path d="M251.12971,172.98058h30.94166l8.08463,8.08463v5.7185h-30.94166l-8.08463,-8.08463zM290.156,186.78371l-8.08463,-8.08463h-30.94166M282.07137,172.98058v5.7185" data-paper-data="{&quot;index&quot;:null}" fill-opacity="0" fill="#000000"/></g><g fill-rule="evenodd" stroke-width="1" stroke-linecap="square"><path d="M211.98685,164.98058h30.94166v5.7185h-30.94166z" data-paper-data="{&quot;index&quot;:null}" fill="#c6c6c6"/><path d="M242.9285,164.98058l8.08463,8.08463v5.7185l-8.08463,-8.08463z" data-paper-data="{&quot;index&quot;:null}" fill="#ebebeb"/><path d="M242.92852,170.69907l8.08463,8.08463h-30.94166l-8.08463,-8.08463z" data-paper-data="{&quot;index&quot;:null}" fill="#d7d7d7"/><path d="M211.98685,164.98058h30.94166l8.08463,8.08463v5.7185h-30.94166l-8.08463,-8.08463zM251.01314,178.78371l-8.08463,-8.08463h-30.94166M242.92851,164.98058v5.7185" data-paper-data="{&quot;index&quot;:null}" fill-opacity="0" fill="#000000"/></g><g fill-rule="evenodd" stroke-width="1" stroke-linecap="square"><path d="M242.84399,164.98058h30.94166v5.7185h-30.94166z" data-paper-data="{&quot;index&quot;:null}" fill="#c6c6c6"/><path d="M273.78564,164.98058l8.08463,8.08463v5.7185l-8.08463,-8.08463z" data-paper-data="{&quot;index&quot;:null}" fill="#ebebeb"/><path d="M273.78566,170.69907l8.08463,8.08463h-30.94166l-8.08463,-8.08463z" data-paper-data="{&quot;index&quot;:null}" fill="#d7d7d7"/><path d="M242.84399,164.98058h30.94166l8.08463,8.08463v5.7185h-30.94166l-8.08463,-8.08463zM281.87028,178.78371l-8.08463,-8.08463h-30.94166M273.78565,164.98058v5.7185" data-paper-data="{&quot;index&quot;:null}" fill-opacity="0" fill="#000000"/></g><g fill-rule="evenodd" stroke-width="1" stroke-linecap="square"><path d="M273.70114,164.98058h30.94166v5.7185h-30.94166z" data-paper-data="{&quot;index&quot;:null}" fill="#c6c6c6"/><path d="M304.64279,164.98058l8.08463,8.08463v5.7185l-8.08463,-8.08463z" data-paper-data="{&quot;index&quot;:null}" fill="#ebebeb"/><path d="M304.64281,170.69907l8.08463,8.08463h-30.94166l-8.08463,-8.08463z" data-paper-data="{&quot;index&quot;:null}" fill="#d7d7d7"/><path d="M273.70114,164.98058h30.94166l8.08463,8.08463v5.7185h-30.94166l-8.08463,-8.08463zM312.72743,178.78371l-8.08463,-8.08463h-30.94166M304.6428,164.98058v5.7185" data-paper-data="{&quot;index&quot;:null}" fill-opacity="0" fill="#000000"/></g><g fill-rule="evenodd" stroke-width="1" stroke-linecap="square"><path d="M204.3297,157.21629h30.94166v5.7185h-30.94166z" data-paper-data="{&quot;index&quot;:null}" fill="#c6c6c6"/><path d="M235.27135,157.21629l8.08463,8.08463v5.7185l-8.08463,-8.08463z" data-paper-data="{&quot;index&quot;:null}" fill="#ebebeb"/><path d="M235.27137,162.93478l8.08463,8.08463h-30.94166l-8.08463,-8.08463z" data-paper-data="{&quot;index&quot;:null}" fill="#d7d7d7"/><path d="M204.3297,157.21629h30.94166l8.08463,8.08463v5.7185h-30.94166l-8.08463,-8.08463zM243.35599,171.01942l-8.08463,-8.08463h-30.94166M235.27136,157.21629v5.7185" data-paper-data="{&quot;index&quot;:null}" fill-opacity="0" fill="#000000"/></g><g fill-rule="evenodd" stroke-width="1" stroke-linecap="square"><path d="M235.18685,157.21629h30.94166v5.7185h-30.94166z" data-paper-data="{&quot;index&quot;:null}" fill="#c6c6c6"/><path d="M266.1285,157.21629l8.08463,8.08463v5.7185l-8.08463,-8.08463z" data-paper-data="{&quot;index&quot;:null}" fill="#ebebeb"/><path d="M266.12852,162.93478l8.08463,8.08463h-30.94166l-8.08463,-8.08463z" data-paper-data="{&quot;index&quot;:null}" fill="#d7d7d7"/><path d="M235.18685,157.21629h30.94166l8.08463,8.08463v5.7185h-30.94166l-8.08463,-8.08463zM274.21314,171.01942l-8.08463,-8.08463h-30.94166M266.12851,157.21629v5.7185" data-paper-data="{&quot;index&quot;:null}" fill-opacity="0" fill="#000000"/></g><g fill-rule="evenodd" stroke-width="1" stroke-linecap="square"><path d="M266.04399,157.21629h30.94166v5.7185h-30.94166z" data-paper-data="{&quot;index&quot;:null}" fill="#c6c6c6"/><path d="M296.98564,157.21629l8.08463,8.08463v5.7185l-8.08463,-8.08463z" data-paper-data="{&quot;index&quot;:null}" fill="#ebebeb"/><path d="M296.98566,162.93478l8.08463,8.08463h-30.94166l-8.08463,-8.08463z" data-paper-data="{&quot;index&quot;:null}" fill="#d7d7d7"/><path d="M266.04399,157.21629h30.94166l8.08463,8.08463v5.7185h-30.94166l-8.08463,-8.08463zM305.07028,171.01942l-8.08463,-8.08463h-30.94166M296.98565,157.21629v5.7185" data-paper-data="{&quot;index&quot;:null}" fill-opacity="0" fill="#000000"/></g><path d="M-71.06081,388.74549c0,-0.13807 0.11193,-0.25 0.25,-0.25c0.13807,0 0.25,0.11193 0.25,0.25c0,0.13807 -0.11193,0.25 -0.25,0.25c-0.13807,0 -0.25,-0.11193 -0.25,-0.25z" fill="#ffffff" fill-rule="nonzero" stroke-width="0.5" stroke-linecap="butt"/><path d="M552.06232,396.253c0,-0.13807 0.11193,-0.25 0.25,-0.25c0.13807,0 0.25,0.11193 0.25,0.25c0,0.13807 -0.11193,0.25 -0.25,0.25c-0.13807,0 -0.25,-0.11193 -0.25,-0.25z" fill="#ffffff" fill-rule="nonzero" stroke-width="0.5" stroke-linecap="butt"/></g></g></svg>